<?xml version="1.0" encoding="utf-8" ?>
<svg baseProfile="full" height="100%" version="1.1" width="100%" xmlns="http://www.w3.org/2000/svg" xmlns:ev="http://www.w3.org/2001/xml-events" xmlns:xlink="http://www.w3.org/1999/xlink"><defs /><rect fill="white" height="110" width="110" x="0" y="0" /><rect fill="black" height="10" width="10" x="10" y="0" /><rect fill="black" height="10" width="10" x="10" y="10" /><rect fill="black" height="10" width="10" x="30" y="10" /><rect fill="black" height="10" width="10" x="40" y="10" /><rect fill="black" height="10" width="10" x="50" y="10" /><rect fill="black" height="10" width="10" x="60" y="10" /><rect fill="black" height="10" width="10" x="70" y="10" /><rect fill="black" height="10" width="10" x="80" y="10" /><rect fill="black" height="10" width="10" x="90" y="10" /><rect fill="black" height="10" width="10" x="10" y="20" /><rect fill="black" height="10" width="10" x="30" y="20" /><rect fill="black" height="10" width="10" x="10" y="30" /><rect fill="black" height="10" width="10" x="30" y="30" /><rect fill="black" height="10" width="10" x="50" y="30" /><rect fill="black" height="10" width="10" x="60" y="30" /><rect fill="black" height="10" width="10" x="70" y="30" /><rect fill="black" height="10" width="10" x="80" y="30" /><rect fill="black" height="10" width="10" x="90" y="30" /><rect fill="black" height="10" width="10" x="100" y="30" /><rect fill="black" height="10" width="10" x="10" y="40" /><rect fill="black" height="10" width="10" x="30" y="40" /><rect fill="black" height="10" width="10" x="10" y="50" /><rect fill="black" height="10" width="10" x="30" y="50" /><rect fill="black" height="10" width="10" x="40" y="50" /><rect fill="black" height="10" width="10" x="50" y="50" /><rect fill="black" height="10" width="10" x="70" y="50" /><rect fill="black" height="10" width="10" x="80" y="50" /><rect fill="black" height="10" width="10" x="90" y="50" /><rect fill="black" height="10" width="10" x="10" y="60" /><rect fill="black" height="10" width="10" x="50" y="60" /><rect fill="black" height="10" width="10" x="90" y="60" /><rect fill="black" height="10" width="10" x="10" y="70" /><rect fill="black" height="10" width="10" x="20" y="70" /><rect fill="black" height="10" width="10" x="30" y="70" /><rect fill="black" height="10" width="10" x="50" y="70" /><rect fill="black" height="10" width="10" x="60" y="70" /><rect fill="black" height="10" width="10" x="70" y="70" /><rect fill="black" height="10" width="10" x="80" y="70" /><rect fill="black" height="10" width="10" x="90" y="70" /><rect fill="black" height="10" width="10" x="30" y="80" /><rect fill="black" height="10" width="10" x="50" y="80" /><rect fill="black" height="10" width="10" x="10" y="90" /><rect fill="black" height="10" width="10" x="30" y="90" /><rect fill="black" height="10" width="10" x="50" y="90" /><rect fill="black" height="10" width="10" x="70" y="90" /><rect fill="black" height="10" width="10" x="80" y="90" /><rect fill="black" height="10" width="10" x="90" y="90" /><rect fill="black" height="10" width="10" x="10" y="100" /><rect fill="black" height="10" width="10" x="70" y="100" /></svg>